<?xml version="1.0" encoding="UTF-8" standalone="no"?>
<svg
   xmlns:dc="http://purl.org/dc/elements/1.1/"
   xmlns:cc="http://creativecommons.org/ns#"
   xmlns:rdf="http://www.w3.org/1999/02/22-rdf-syntax-ns#"
   xmlns:svg="http://www.w3.org/2000/svg"
   xmlns="http://www.w3.org/2000/svg"
   xmlns:xlink="http://www.w3.org/1999/xlink"
   xmlns:sodipodi="http://sodipodi.sourceforge.net/DTD/sodipodi-0.dtd"
   xmlns:inkscape="http://www.inkscape.org/namespaces/inkscape"
   inkscape:version="1.0 (4035a4fb49, 2020-05-01)"
   sodipodi:docname="Snowboarding_pictogram.svg"
   xml:space="preserve"
   enable-background="new 0 0 300 300"
   viewBox="0 0 300 300"
   height="300px"
   width="300px"
   y="0px"
   x="0px"
   id="Layer_1"
   version="1.1"><metadata
   id="metadata40"><rdf:RDF><cc:Work
       rdf:about=""><dc:format>image/svg+xml</dc:format><dc:type
         rdf:resource="http://purl.org/dc/dcmitype/StillImage" /></cc:Work></rdf:RDF></metadata><defs
   id="defs38">
	<defs
   id="defs3">
		<rect
   id="SVGID_1_"
   width="300"
   height="300" />
	</defs>
	<clipPath
   id="SVGID_2_">
		<use
   xlink:href="#SVGID_1_"
   overflow="visible"
   id="use5" />
	</clipPath>
	

		
		
		
		
		
		
		
		
		
		
		
		
	</defs><sodipodi:namedview
   inkscape:current-layer="Layer_1"
   inkscape:window-maximized="1"
   inkscape:window-y="-8"
   inkscape:window-x="-8"
   inkscape:cy="128.86767"
   inkscape:cx="97.159043"
   inkscape:zoom="1.1148717"
   showguides="false"
   showgrid="false"
   id="namedview36"
   inkscape:window-height="705"
   inkscape:window-width="1366"
   inkscape:pageshadow="2"
   inkscape:pageopacity="0"
   guidetolerance="10"
   gridtolerance="10"
   objecttolerance="10"
   borderopacity="1"
   bordercolor="#666666"
   pagecolor="#ffffff" />

<path
   sodipodi:nodetypes="cccccccccccccccc"
   id="path910"
   d="m 47.476376,118.18344 c -1.150364,0.0618 -2.297264,0.24985 -3.401029,0.58864 -5.306656,1.82923 -9.518434,5.92878 -12.917374,10.2685 -4.149256,6.60637 -3.728056,15.93069 1.242683,22.00858 l 13.800334,12.59036 c 25.050466,22.86091 42.982221,39.72467 71.78135,67.33384 l 11.96901,12.59035 c 2.36159,2.70771 4.8518,5.26959 7.91393,7.22718 4.77924,3.1143 11.2663,2.78312 16.08949,-0.0654 5.49606,-3.41045 10.34435,-7.97853 13.73492,-13.50602 2.60153,-4.61597 0.95439,-10.67922 -3.13941,-13.86573 -7.76586,-6.7047 -16.75295,-11.74007 -24.85368,-18.01889 -31.05965,-22.72466 -45.237011,-36.889 -68.870849,-67.46463 -4.279018,-5.78384 -7.448254,-12.65574 -13.538713,-16.84164 -2.816837,-1.9998 -6.359569,-3.03046 -9.810662,-2.84508 z"
   style="fill:#ffffff;stroke:#000000;stroke-width:7;stroke-miterlimit:4;stroke-dasharray:none;stroke-opacity:1;paint-order:fill markers stroke" /><path
   id="path10"
   d="m 187.727,35.941 c 10.306,-1.429 20.779,5.715 23.398,15.75 2.657,8.732 -1.39,18.617 -8.835,23.647 -5.605,3.597 -12.876,4.701 -19.155,2.274 -6.892,-2.288 -12.168,-8.365 -13.737,-15.422 -1.735,-5.236 -0.133,-10.889 2.342,-15.604 3.168,-5.918 9.472,-9.627 15.987,-10.645 z" /><path
   id="path14"
   d="m 264.717,81.489 c 4.313,-10.387 9.244,-20.54 12.246,-31.412 1.371,8.266 0.232,16.637 0.406,24.954 0.171,10.066 1.367,21.114 -4.111,30.117 -1.883,3.512 -5.629,5.623 -9.479,6.229 -9.98,1.059 -20.041,-0.609 -29.609,-3.439 -6.287,-1.846 -12.707,-4.104 -17.768,-8.41 -3.357,-2.739 -5.105,-7.604 -3.336,-11.727 1.396,-3.98 5.922,-5.845 9.889,-5.636 7.599,-0.459 14.634,2.716 21.625,5.191 4.52,1.78 8.727,4.246 13.133,6.279 2.33,-4.049 5.162,-7.829 7.004,-12.146 z" /><path
   id="path18"
   d="m 70.017,74.836 c 18.66,0.774 37.366,2.854 56.032,1.043 11.381,-0.479 22.851,-2.718 34.201,-0.706 5.798,1.542 8.744,9.961 4.422,14.415 -2.042,2.517 -5.183,4.01 -8.389,4.27 -8.281,1.2 -16.504,-0.884 -24.722,-1.637 C 119.382,90.107 107.459,86.763 95.495,83.695 86.571,82.141 78.404,78.066 70.017,74.836 Z" /><path
   id="path22"
   d="m 120.222,109.257 c 9.127,-6.066 18.587,-12.888 29.872,-13.787 5.714,-0.673 11.05,2.667 14.38,7.083 6.079,8.943 10.518,18.924 13.583,29.278 4.677,-4.61 9.81,-10.232 16.915,-10.206 3.869,0.413 8.172,1.911 10.105,5.571 2.084,3.36 1.537,7.482 1.002,11.192 -1.443,7.044 -5.213,13.414 -10.008,18.698 -9.137,10.065 -20.246,18.048 -31.493,25.571 -8.929,6.139 -18.553,11.172 -28.229,16.01 5.995,-11.563 13.95,-22.073 19.648,-33.797 -0.933,-4.036 -3.648,-7.492 -4.519,-11.598 -3.252,-10.151 -4.748,-20.715 -6.448,-31.205 -17.621,4.538 -34.6,11.28 -52.236,15.779 -4.711,1.213 -9.361,2.675 -14.132,3.646 4.69,-4.577 9.306,-9.259 14.312,-13.494 9.031,-6.32 18.239,-12.388 27.248,-18.741 z" /><path
   d="m 50.650876,141.48236 c 0,-4.00867 3.256125,-7.2583 7.272803,-7.25722 4.01669,9.1e-4 7.272814,3.2507 7.272814,7.2583 0,4.00866 -3.256124,7.2583 -7.272814,7.25721 -4.016678,0 -7.272803,-3.24963 -7.272803,-7.25829 z"
   id="path2759"
   style="fill:#000000;stroke:#000000;stroke-width:1;stroke-miterlimit:4;stroke-dasharray:none;stroke-opacity:1" /><path
   style="fill:#000000;stroke:#ffffff;stroke-width:4;stroke-miterlimit:4;stroke-dasharray:none;stroke-opacity:1;paint-order:markers stroke fill"
   id="path2777"
   d="m 30.566074,159.45297 c 0,-4.00867 3.256125,-7.2583 7.272803,-7.25723 4.016686,9.2e-4 7.27281,3.25072 7.27281,7.25831 0,4.00866 -3.256124,7.2583 -7.27281,7.25722 -4.016678,0 -7.272803,-3.24964 -7.272803,-7.2583 z" /><path
   style="fill:#000000;stroke:#000000;stroke-width:1;stroke-miterlimit:4;stroke-dasharray:none;stroke-opacity:1"
   id="path2785"
   d="m 134.16138,221.82157 c 0,-4.00868 3.25613,-7.2583 7.2728,-7.25722 4.01669,9.2e-4 7.27282,3.2507 7.27282,7.2583 0,4.00865 -3.25613,7.25829 -7.27282,7.25722 -4.01667,0 -7.2728,-3.24964 -7.2728,-7.2583 z" /><path
   d="m 114.07658,239.79218 c 0,-4.00867 3.25612,-7.2583 7.27281,-7.25722 4.01667,9.1e-4 7.27281,3.2507 7.27281,7.2583 0,4.00866 -3.25614,7.2583 -7.27281,7.25722 -4.01669,0 -7.27281,-3.24964 -7.27281,-7.2583 z"
   id="path2789"
   style="fill:#000000;stroke:#ffffff;stroke-width:4;stroke-miterlimit:4;stroke-dasharray:none;stroke-opacity:1;paint-order:markers stroke fill" /></svg>
