<?xml version="1.0" encoding="UTF-8"?><svg id="a" xmlns="http://www.w3.org/2000/svg" width="300" height="300" viewBox="0 0 300 300"><defs><style>.b{stroke-width:0px;}</style></defs><path class="b" d="m133.9,128.2c31.2,3,81,10.4,93.1,12.4s11.6,1.4,15.2,6.1c3.4,4.3,1.7,10.9-2.8,13.7-4.8,3.3-11,1.9-16.4,1.2-13.4-2.5-26.6-6.3-39.5-10.8-13.6-4.6-26.9-10-39.8-16.3-3.3-1.7-6.9-3-10.2-4.8s-.4-1.5.4-1.4Z"/><path class="b" d="m135.4,150.4c5.4-2.6,11.9-1.8,17.3.7,21.9,10.1,67.4,42.5,67.4,58.7s-37.6,64.3-50.8,68.3c-.7.2-1-.1-.8-.8,6.9-17.7,16.3-47.5,28.9-64.2-12.2-3.3-36.6-17.4-45.9-24.5.1,10.1-2,20.6-8.3,28.8-2.1,3.1-5.8,4.5-9.4,5.3-15.2,3.3-30.7,4.3-46.1,6.6-8,.8-16,2.5-24.1,2.2s-1.4-1.5-.4-2c14.9-7.5,30.6-12.8,46.1-18.8,6.2-2.5,12.8-3.8,19-6.2,0-12.1,0-24.2,0-36.3.4-6.3,1.4-13.8,7.1-17.6Z"/><circle class="b" cx="268.5" cy="131.3" r="21.5"/><path class="b" d="m150.9,284h56v1c0,2.8-2.2,5-5,5h-51v-6h0Z"/><path class="b" d="m29.5,241.1h56v1c0,2.8-2.2,5-5,5H29.5v-6h0Z" transform="translate(271.9 114) rotate(72)"/><path class="b" d="m45.4,28.4c31.2,3,81,10.4,93.1,12.4s11.6,1.4,15.2,6.1c3.4,4.3,1.7,10.9-2.8,13.7-4.8,3.3-11,1.9-16.4,1.2-13.4-2.5-26.6-6.3-39.5-10.8-13.6-4.6-26.9-10-39.8-16.3-3.3-1.7-6.9-3-10.2-4.8s-.4-1.5.4-1.4Z"/><circle class="b" cx="180" cy="31.5" r="21.5"/><path class="b" d="m62.4,184.2h56v1c0,2.8-2.2,5-5,5h-51v-6h0Z"/><path class="b" d="m64.2,51.3c-5.3-2.5-11.9-3.2-17.3-.7-5.7,3.8-6.7,11.3-7.1,17.6-.1,12.1,0,24.2,0,36.3-6.2,2.4-12.8,3.7-19,6.2-6.9,2.6-13.9,5.2-20.8,7.8v10.6c15.1-2.2,30.3-3.2,45.3-6.4,3.6-.8,7.2-2.2,9.4-5.3,6.3-8.2,8.5-18.6,8.3-28.8,9.4,7.1,33.7,21.2,45.9,24.5-12.7,16.7-22,46.5-28.9,64.2-.3.7,0,1,.8.8,13.3-3.9,50.8-54.9,50.8-68.3,0-16.2-45.5-48.6-67.4-58.7Z"/><circle class="b" cx="276" cy="204.5" r="4.5"/><circle class="b" cx="240" cy="204.5" r="4.5"/><circle class="b" cx="96" cy="204.5" r="4.5"/><circle class="b" cx="60" cy="204.5" r="4.5"/><circle class="b" cx="24" cy="204.5" r="4.5"/></svg>